<svg xmlns="http://www.w3.org/2000/svg" xmlns:xlink="http://www.w3.org/1999/xlink" viewBox="0 0 611.1 134.7"><defs><linearGradient id="linear-gradient" x1="6.67" y1="33.8" x2="62.56" y2="33.8" gradientUnits="userSpaceOnUse"><stop offset="0" stop-color="#3551a1"/><stop offset="0.01" stop-color="#3651a0"/><stop offset="1" stop-color="#847067"/></linearGradient><linearGradient id="linear-gradient-2" x1="88.41" y1="93.89" x2="88.41" y2="65.68" gradientUnits="userSpaceOnUse"><stop offset="0" stop-color="#f8a020"/><stop offset="0.18" stop-color="#f39e23"/><stop offset="0.41" stop-color="#e3972b"/><stop offset="0.67" stop-color="#c98d39"/><stop offset="0.94" stop-color="#a57e4c"/><stop offset="1" stop-color="#9c7a51"/></linearGradient><linearGradient id="linear-gradient-3" x1="47.69" y1="38.46" x2="113.99" y2="21.93" gradientUnits="userSpaceOnUse"><stop offset="0.12" stop-color="#b31f56"/><stop offset="0.12" stop-color="#b21f57"/><stop offset="0.18" stop-color="#a2236e"/><stop offset="0.24" stop-color="#97277f"/><stop offset="0.32" stop-color="#902889"/><stop offset="0.41" stop-color="#8e298c"/><stop offset="0.47" stop-color="#8d2b89"/><stop offset="0.52" stop-color="#8a327f"/><stop offset="0.56" stop-color="#863d6f"/><stop offset="0.6" stop-color="#7f4d59"/><stop offset="0.62" stop-color="#795b44"/><stop offset="0.64" stop-color="#766244"/><stop offset="0.72" stop-color="#6c7e44"/><stop offset="0.81" stop-color="#649144"/><stop offset="0.89" stop-color="#609d44"/><stop offset="0.97" stop-color="#5ea144"/></linearGradient><linearGradient id="linear-gradient-4" x1="64.43" y1="55.39" x2="114.47" y2="55.39" gradientUnits="userSpaceOnUse"><stop offset="0" stop-color="#3b7137"/><stop offset="0.18" stop-color="#48833c"/><stop offset="0.41" stop-color="#549440"/><stop offset="0.67" stop-color="#5c9e43"/><stop offset="1" stop-color="#5ea144"/></linearGradient><linearGradient id="linear-gradient-5" x1="56.31" y1="113.68" x2="112.19" y2="113.68" gradientUnits="userSpaceOnUse"><stop offset="0" stop-color="#d32032"/><stop offset="0.32" stop-color="#e04e2e"/><stop offset="0.78" stop-color="#f28c29"/><stop offset="1" stop-color="#f9a427"/></linearGradient><linearGradient id="linear-gradient-6" x1="55.79" y1="100.35" x2="65.9" y2="100.35" gradientUnits="userSpaceOnUse"><stop offset="0" stop-color="#da1f27"/><stop offset="1" stop-color="#b42056"/></linearGradient><linearGradient id="linear-gradient-7" x1="4.26" y1="92.76" x2="60.57" y2="92.76" gradientUnits="userSpaceOnUse"><stop offset="0" stop-color="#1f2151"/><stop offset="0.57" stop-color="#29473c"/><stop offset="1" stop-color="#305f2f"/></linearGradient><linearGradient id="linear-gradient-8" x1="9.63" y1="109.7" x2="-3.28" y2="-36.45" gradientUnits="userSpaceOnUse"><stop offset="0" stop-color="#1f2151"/><stop offset="0.14" stop-color="#212558"/><stop offset="0.33" stop-color="#26316b"/><stop offset="0.57" stop-color="#2f448b"/><stop offset="0.7" stop-color="#3551a1"/></linearGradient><linearGradient id="linear-gradient-9" x1="63.62" y1="71.72" x2="63.62" y2="61.16" gradientTransform="translate(100.7 -17.8) rotate(67.5)" gradientUnits="userSpaceOnUse"><stop offset="0" stop-color="#bd1f41"/><stop offset="0.23" stop-color="#b71f4d"/><stop offset="0.57" stop-color="#b21f57"/><stop offset="1" stop-color="#b01f5a"/></linearGradient></defs><g id="Layer_2" data-name="Layer 2"><g id="Layer_1-2" data-name="Layer 1"><path d="M7,2.7s3.2,1.4,4.2,2A31.1,31.1,0,0,1,15,7.2c1.3.9,3.7,2.7,4.8,3.7A75.8,75.8,0,0,1,26,17.4c1.6,1.9,4.6,6,6.1,8s5.2,7.1,7,9.4,6.7,8.5,9,11.3l6.5,7.2c1.7,1.8,7.7,8.8,7.7,8.8l.3,2.8-2-1.2L50.9,52.5l-5.2-6.6-6.3-8.5c-2.6-3.2-7.7-10.5-10.3-13.6a94.5,94.5,0,0,0-8-8.6,66.8,66.8,0,0,0-7.4-5.4l-7-3.6Z" fill="url(#linear-gradient)"/><polygon points="65.1 65.7 68.8 67.4 75 71.5 81.8 75.5 90.4 80.1 98.8 84.9 105.8 88.9 111.9 92.8 112.2 93.9 110.5 93.4 101.7 88.3 93.8 84.1 87.4 80.9 81.6 77.9 73.6 73.6 68.9 70.7 64.6 68.5 65.1 65.7" fill="url(#linear-gradient-2)"/><path d="M64.8,9.9a38.5,38.5,0,0,1-2.7-3,14.6,14.6,0,0,1-.9-1.8L59.6,3.4l-.2,2.7s.6,5.5.7,7.3.2,9.2.2,9.2l.3,12.6L61,50.4V65l2.3,1.7,2.3-5s-.8-6.6-1.1-8.9-.5-4.5-.5-4.5-1-9.5-1.3-12.7-.5-9.1-.6-12.2-.4-7.6-.5-10.1S61.4,9,61.4,9V7.3l1.8,2.5a36.5,36.5,0,0,0,4.3,3.5c1.3.9,5.7,3.5,5.7,3.5l6.4,3.3,5.9,3,5.3,3c1.3.8,3.3,2.1,4.5,3l4.9,3.3,7.6,5.5,4.8,3.3,2.1,1,.9-.8-9.6-6.5-5.8-4.2c-1.2-.9-4.3-2.9-5.4-3.6a109.1,109.1,0,0,0-10.8-6c-2.3-1.1-6.7-3.6-9.2-4.9s-4.1-2.3-6.4-3.8S65.6,10.6,64.8,9.9Z" fill="url(#linear-gradient-3)"/><circle cx="59.6" cy="3.4" r="2.8" fill="#902889"/><path d="M65,65.9l3.3-1.3,3.6-1.1a31.8,31.8,0,0,1,3.3-.8l3.7-.9,3.7-.9L86,59.8l4.4-1.7,5.3-2.7,5.5-3.1,4.9-3.2,4.9-3.9,2.8-2.6.7.6a11.8,11.8,0,0,1-.6,1.3,33.2,33.2,0,0,1-3.8,3.7c-.9.9-3,2.5-4,3.3s-4,2.8-5.4,3.7-4.8,2.9-6.4,3.7a54,54,0,0,1-7.4,3.3c-1.6.5-4.8,1.4-6.4,1.7l-3.6.7-3,.6c-1.1.2-5.2,1.5-5.2,1.5l-4.3,1.4Z" fill="url(#linear-gradient-4)"/><path d="M118.4,41.8a3.1,3.1,0,1,1-6.1,0,3.1,3.1,0,0,1,6.1,0Z" fill="#5ea144"/><path d="M114,94.4a2,2,0,0,1-2,2,2,2,0,0,1-2.1-2,2.1,2.1,0,0,1,2.1-2.1A2,2,0,0,1,114,94.4Z" fill="#f8a020"/><path d="M112.2,95.5a8.6,8.6,0,0,1-1.6,1.3,56.6,56.6,0,0,1-6,2.7l-7.5,3.2c-1.9.8-5.5,2.6-7.3,3.6l-6.3,3.9c-2.1,1.5-6.4,4.7-8.4,6.4s-5.8,4.9-7.6,6.6l-7.8,7.3L57.3,132l-1-3.3s2.3-2.6,3.1-3.3,5.1-4.1,6.9-5.4,6.9-5.1,9.3-6.6,5.6-3.6,8-4.9,11-5.5,14.3-7l7.8-3.3s2.9-1.3,3.8-1.9a7.6,7.6,0,0,0,1.2-1Z" fill="url(#linear-gradient-5)"/><path d="M61.2,70.2s.5,5.6.6,7.5.4,9.5.5,12.6-.1,6.6-.2,8.8-.4,5.6-.6,7.4-.8,5.8-1.2,7.9-1.1,4.3-1.6,5.8l-1.2,3.3c-.4,1-1.7,3.8-1.7,3.8v4.4a31.8,31.8,0,0,0,3.1-4.6c1.2-2.9,1.7-10,2.1-12.6s.8-5.5,1-7.5.9-5.7,1.1-7.6,1-8.3,1.3-11.1.9-8,1.1-10.6l.4-5.6V69Z" fill="url(#linear-gradient-6)"/><circle cx="56.3" cy="130.7" r="4" fill="#da1f27"/><path d="M6.9,117.4l1.2-2.1s3.1-4.2,4.2-5.5,4.7-5.7,6.1-7.4,4.1-4.4,5.4-5.7,6.6-6.5,8.9-8.5,6.1-5.2,8.2-6.8l5.4-3.7c1.9-1.2,6-3.8,8-4.8s6.3-3.1,6.3-3.1l-.9-1.7-7.5,4.2c-2.7,1.6-6,4-8.6,5.7l-6.7,5.1c-2.6,2-7.9,6.3-10.2,8.4s-6,5.7-8.1,7.8-7.9,8.1-10.3,10.9a38.9,38.9,0,0,0-3.2,3.9,21.6,21.6,0,0,0-.8,2.4Z" fill="url(#linear-gradient-7)"/><circle cx="4.1" cy="118" r="4.1" fill="#1f2151"/><path d="M9.8,3.8A3.8,3.8,0,1,1,6,0,3.8,3.8,0,0,1,9.8,3.8Z" fill="#3551a1"/><path d="M6.8,117.7l-3.3-1.9s.6-9.2.8-11.7.2-4.9.3-6.6.2-3.3.3-4.4.3-7.2.3-9.6,0-9.5-.1-12.6-.3-8.5-.6-11.3-.7-8-.9-10.6-.9-13.9-.9-13.9-.4-5.3-.5-7.3V23.4c0-2.5.1-7.6.3-10.1s1-9,1-9L4.9,5,7,5.8l.2.8s-1.6,4.2-1.9,5.3a27.9,27.9,0,0,0-.7,3.8c-.2,1.9-.5,5.7-.5,7.6s.1,5.8.2,7.7.3,5.2.5,7S5.7,47.3,6,50.4s.8,12.3,1,16.3S7,80.4,7,85.1s-.5,11.8-.6,15.8c0,1.9.1,5.9,0,7.8S6.8,117.7,6.8,117.7Z" fill="url(#linear-gradient-8)"/><circle cx="63.6" cy="66.4" r="5.3" transform="translate(-22.1 99.8) rotate(-67.5)" fill="url(#linear-gradient-9)"/><path d="M142.9,101.4V36.9h19.3a42.4,42.4,0,0,1,16.5,2.9,28.2,28.2,0,0,1,11,7.7,30.5,30.5,0,0,1,6.1,10.8,37.8,37.8,0,0,1,2,12,31.3,31.3,0,0,1-2.6,12.9,30.5,30.5,0,0,1-7.1,9.8,30.8,30.8,0,0,1-10.3,6.2,34.6,34.6,0,0,1-12.5,2.2Zm12.7-12.3h7.5a26.7,26.7,0,0,0,8.8-1.3,18,18,0,0,0,6.8-3.7,15.6,15.6,0,0,0,4.4-6.2,22.2,22.2,0,0,0,1.5-8.5,22.2,22.2,0,0,0-2.1-10.3,16.5,16.5,0,0,0-5-6.2,20.8,20.8,0,0,0-6.2-3,19.6,19.6,0,0,0-5.4-.8H155.6Z"/><path d="M199.2,101.4l29-67h.7l29.1,67H243.3L224.7,54.2l9.2-6.3-22.2,53.5ZM236,88.8H215.1L219,78.1"/><path d="M300.9,101.4l29.1-67h.7l29,67H345L326.5,54.2l9.2-6.3-22.3,53.5Zm36.8-12.6H316.8l4-10.7"/><path d="M418.1,101.4l29.1-67h.7l29.1,67H462.3L443.7,54.2l9.2-6.3-22.3,53.5Zm36.8-12.6H434.1L438,78.1"/><path d="M257.4,36.9h43.5V49.2H285.2v52.2H272.5V49.2H257.4Z"/><path d="M387.8,36.9c6.7,0,12,1.4,16,4.1s6,6.7,6,12.1a15.8,15.8,0,0,1-3,9.9,17.1,17.1,0,0,1-7.9,6,32,32,0,0,1-11.6,2l-2-6.9a44.1,44.1,0,0,1,14.2,2.2,22.8,22.8,0,0,1,9.7,6.3,14.3,14.3,0,0,1,3.6,9.8,20.2,20.2,0,0,1-1.8,8.9,16.9,16.9,0,0,1-5.1,5.8,23.1,23.1,0,0,1-7.3,3.3,37,37,0,0,1-8.3,1H368.9V36.9Zm1.5,26.4a6.6,6.6,0,0,0,5.5-2.3,8.2,8.2,0,0,0,1.8-5.2,5.8,5.8,0,0,0-2.2-5,9.9,9.9,0,0,0-6-1.6h-6.8V63.3Zm.4,26.2a16.1,16.1,0,0,0,5.1-.7,7.6,7.6,0,0,0,3.6-2.4,5.8,5.8,0,0,0,1.3-4,5.4,5.4,0,0,0-1.6-4.3,9.3,9.3,0,0,0-4.1-2,21.8,21.8,0,0,0-5.2-.6h-7.2v14Z"/><path d="M542.1,104,493.2,59.8l3.7,2.2.3,39.4H484.3v-67h.6l47.8,43.9-2.8-1.2-.3-40.2h12.8V104Z"/><path d="M571.9,59.8l-.3,3.3,1.9-2.5,21.1-23.7H611L584.4,65.8l26.7,35.6H595L575.1,73.9,571.9,77v24.4H559.1V36.9h12.8Z"/></g></g></svg>